<?xml version="1.0" encoding="utf-8" standalone="no"?>
<!DOCTYPE svg PUBLIC "-//W3C//DTD SVG 1.1//EN"
  "http://www.w3.org/Graphics/SVG/1.1/DTD/svg11.dtd">
<svg height="216pt" version="1.1" viewBox="0 0 504 216" width="504pt" xmlns="http://www.w3.org/2000/svg" xmlns:xlink="http://www.w3.org/1999/xlink">
 <metadata>
  <rdf:RDF xmlns:cc="http://creativecommons.org/ns#" xmlns:dc="http://purl.org/dc/elements/1.1/" xmlns:rdf="http://www.w3.org/1999/02/22-rdf-syntax-ns#">
   <cc:Work>
    <dc:type rdf:resource="http://purl.org/dc/dcmitype/StillImage"/>
    <dc:date>2026-03-31T18:30:16.521352</dc:date>
    <dc:format>image/svg+xml</dc:format>
    <dc:creator>
     <cc:Agent>
      <dc:title>Matplotlib v3.4.3, https://matplotlib.org/</dc:title>
     </cc:Agent>
    </dc:creator>
   </cc:Work>
  </rdf:RDF>
 </metadata>
 <defs>
  <style type="text/css">*{stroke-linecap:butt;stroke-linejoin:round;}</style>
 </defs>
 <g id="figure_1">
  <g id="patch_1">
   <path d="M 0 216 
L 504 216 
L 504 0 
L 0 0 
z
" style="fill:#ffffff;"/>
  </g>
  <g id="axes_1">
   <g id="patch_2">
    <path d="M 78.86 161.3875 
L 493.2 161.3875 
L 493.2 30.72 
L 78.86 30.72 
z
" style="fill:#ffffff;"/>
   </g>
   <g id="patch_3">
    <path clip-path="url(#pdda965d251)" d="M 82.922157 684.0575 
L 95.149385 684.0575 
L 95.149385 72.121973 
L 82.922157 72.121973 
z
" style="fill:#4c72b0;stroke:#000000;stroke-linejoin:miter;stroke-width:0.4;"/>
   </g>
   <g id="patch_4">
    <path clip-path="url(#pdda965d251)" d="M 96.507966 684.0575 
L 108.735194 684.0575 
L 108.735194 62.621058 
L 96.507966 62.621058 
z
" style="fill:#4c72b0;stroke:#000000;stroke-linejoin:miter;stroke-width:0.4;"/>
   </g>
   <g id="patch_5">
    <path clip-path="url(#pdda965d251)" d="M 110.093775 684.0575 
L 122.321003 684.0575 
L 122.321003 92.424097 
L 110.093775 92.424097 
z
" style="fill:#4c72b0;stroke:#000000;stroke-linejoin:miter;stroke-width:0.4;"/>
   </g>
   <g id="patch_6">
    <path clip-path="url(#pdda965d251)" d="M 123.679584 684.0575 
L 135.906812 684.0575 
L 135.906812 95.575114 
L 123.679584 95.575114 
z
" style="fill:#4c72b0;stroke:#000000;stroke-linejoin:miter;stroke-width:0.4;"/>
   </g>
   <g id="patch_7">
    <path clip-path="url(#pdda965d251)" d="M 137.265392 684.0575 
L 149.49262 684.0575 
L 149.49262 32.530838 
L 137.265392 32.530838 
z
" style="fill:#4c72b0;stroke:#000000;stroke-linejoin:miter;stroke-width:0.4;"/>
   </g>
   <g id="patch_8">
    <path clip-path="url(#pdda965d251)" d="M 150.851201 684.0575 
L 163.078429 684.0575 
L 163.078429 63.22733 
L 150.851201 63.22733 
z
" style="fill:#4c72b0;stroke:#000000;stroke-linejoin:miter;stroke-width:0.4;"/>
   </g>
   <g id="patch_9">
    <path clip-path="url(#pdda965d251)" d="M 164.43701 684.0575 
L 176.664238 684.0575 
L 176.664238 85.100974 
L 164.43701 85.100974 
z
" style="fill:#4c72b0;stroke:#000000;stroke-linejoin:miter;stroke-width:0.4;"/>
   </g>
   <g id="patch_10">
    <path clip-path="url(#pdda965d251)" d="M 178.022819 684.0575 
L 190.250047 684.0575 
L 190.250047 62.605104 
L 178.022819 62.605104 
z
" style="fill:#4c72b0;stroke:#000000;stroke-linejoin:miter;stroke-width:0.4;"/>
   </g>
   <g id="patch_11">
    <path clip-path="url(#pdda965d251)" d="M 191.608628 684.0575 
L 203.835856 684.0575 
L 203.835856 56.526432 
L 191.608628 56.526432 
z
" style="fill:#4c72b0;stroke:#000000;stroke-linejoin:miter;stroke-width:0.4;"/>
   </g>
   <g id="patch_12">
    <path clip-path="url(#pdda965d251)" d="M 205.194437 684.0575 
L 217.421665 684.0575 
L 217.421665 85.603541 
L 205.194437 85.603541 
z
" style="fill:#4c72b0;stroke:#000000;stroke-linejoin:miter;stroke-width:0.4;"/>
   </g>
   <g id="patch_13">
    <path clip-path="url(#pdda965d251)" d="M 218.780246 684.0575 
L 231.007474 684.0575 
L 231.007474 81.519184 
L 218.780246 81.519184 
z
" style="fill:#4c72b0;stroke:#000000;stroke-linejoin:miter;stroke-width:0.4;"/>
   </g>
   <g id="patch_14">
    <path clip-path="url(#pdda965d251)" d="M 232.366055 684.0575 
L 244.593283 684.0575 
L 244.593283 45.637474 
L 232.366055 45.637474 
z
" style="fill:#4c72b0;stroke:#000000;stroke-linejoin:miter;stroke-width:0.4;"/>
   </g>
   <g id="patch_15">
    <path clip-path="url(#pdda965d251)" d="M 245.951864 684.0575 
L 258.179092 684.0575 
L 258.179092 64.264373 
L 245.951864 64.264373 
z
" style="fill:#4c72b0;stroke:#000000;stroke-linejoin:miter;stroke-width:0.4;"/>
   </g>
   <g id="patch_16">
    <path clip-path="url(#pdda965d251)" d="M 259.537673 684.0575 
L 271.764901 684.0575 
L 271.764901 87.20697 
L 259.537673 87.20697 
z
" style="fill:#4c72b0;stroke:#000000;stroke-linejoin:miter;stroke-width:0.4;"/>
   </g>
   <g id="patch_17">
    <path clip-path="url(#pdda965d251)" d="M 273.123482 684.0575 
L 285.35071 684.0575 
L 285.35071 45.278497 
L 273.123482 45.278497 
z
" style="fill:#4c72b0;stroke:#000000;stroke-linejoin:miter;stroke-width:0.4;"/>
   </g>
   <g id="patch_18">
    <path clip-path="url(#pdda965d251)" d="M 286.70929 684.0575 
L 298.936518 684.0575 
L 298.936518 82.620046 
L 286.70929 82.620046 
z
" style="fill:#4c72b0;stroke:#000000;stroke-linejoin:miter;stroke-width:0.4;"/>
   </g>
   <g id="patch_19">
    <path clip-path="url(#pdda965d251)" d="M 300.295099 684.0575 
L 312.522327 684.0575 
L 312.522327 65.101986 
L 300.295099 65.101986 
z
" style="fill:#4c72b0;stroke:#000000;stroke-linejoin:miter;stroke-width:0.4;"/>
   </g>
   <g id="patch_20">
    <path clip-path="url(#pdda965d251)" d="M 313.880908 684.0575 
L 326.108136 684.0575 
L 326.108136 70.646181 
L 313.880908 70.646181 
z
" style="fill:#4c72b0;stroke:#000000;stroke-linejoin:miter;stroke-width:0.4;"/>
   </g>
   <g id="patch_21">
    <path clip-path="url(#pdda965d251)" d="M 327.466717 684.0575 
L 339.693945 684.0575 
L 339.693945 68.803434 
L 327.466717 68.803434 
z
" style="fill:#4c72b0;stroke:#000000;stroke-linejoin:miter;stroke-width:0.4;"/>
   </g>
   <g id="patch_22">
    <path clip-path="url(#pdda965d251)" d="M 341.052526 684.0575 
L 353.279754 684.0575 
L 353.279754 56.03982 
L 341.052526 56.03982 
z
" style="fill:#4c72b0;stroke:#000000;stroke-linejoin:miter;stroke-width:0.4;"/>
   </g>
   <g id="patch_23">
    <path clip-path="url(#pdda965d251)" d="M 354.638335 684.0575 
L 366.865563 684.0575 
L 366.865563 91.147736 
L 354.638335 91.147736 
z
" style="fill:#4c72b0;stroke:#000000;stroke-linejoin:miter;stroke-width:0.4;"/>
   </g>
   <g id="patch_24">
    <path clip-path="url(#pdda965d251)" d="M 368.224144 684.0575 
L 380.451372 684.0575 
L 380.451372 37.484716 
L 368.224144 37.484716 
z
" style="fill:#4c72b0;stroke:#000000;stroke-linejoin:miter;stroke-width:0.4;"/>
   </g>
   <g id="patch_25">
    <path clip-path="url(#pdda965d251)" d="M 381.809953 684.0575 
L 394.037181 684.0575 
L 394.037181 86.935743 
L 381.809953 86.935743 
z
" style="fill:#4c72b0;stroke:#000000;stroke-linejoin:miter;stroke-width:0.4;"/>
   </g>
   <g id="patch_26">
    <path clip-path="url(#pdda965d251)" d="M 395.395762 684.0575 
L 407.62299 684.0575 
L 407.62299 61.240992 
L 395.395762 61.240992 
z
" style="fill:#4c72b0;stroke:#000000;stroke-linejoin:miter;stroke-width:0.4;"/>
   </g>
   <g id="patch_27">
    <path clip-path="url(#pdda965d251)" d="M 408.981571 684.0575 
L 421.208799 684.0575 
L 421.208799 55.896229 
L 408.981571 55.896229 
z
" style="fill:#4c72b0;stroke:#000000;stroke-linejoin:miter;stroke-width:0.4;"/>
   </g>
   <g id="patch_28">
    <path clip-path="url(#pdda965d251)" d="M 422.56738 684.0575 
L 434.794608 684.0575 
L 434.794608 59.637563 
L 422.56738 59.637563 
z
" style="fill:#4c72b0;stroke:#000000;stroke-linejoin:miter;stroke-width:0.4;"/>
   </g>
   <g id="patch_29">
    <path clip-path="url(#pdda965d251)" d="M 436.153188 684.0575 
L 448.380416 684.0575 
L 448.380416 102.156353 
L 436.153188 102.156353 
z
" style="fill:#4c72b0;stroke:#000000;stroke-linejoin:miter;stroke-width:0.4;"/>
   </g>
   <g id="patch_30">
    <path clip-path="url(#pdda965d251)" d="M 449.738997 684.0575 
L 461.966225 684.0575 
L 461.966225 53.375415 
L 449.738997 53.375415 
z
" style="fill:#4c72b0;stroke:#000000;stroke-linejoin:miter;stroke-width:0.4;"/>
   </g>
   <g id="patch_31">
    <path clip-path="url(#pdda965d251)" d="M 463.324806 684.0575 
L 475.552034 684.0575 
L 475.552034 53.838096 
L 463.324806 53.838096 
z
" style="fill:#4c72b0;stroke:#000000;stroke-linejoin:miter;stroke-width:0.4;"/>
   </g>
   <g id="patch_32">
    <path clip-path="url(#pdda965d251)" d="M 476.910615 684.0575 
L 489.137843 684.0575 
L 489.137843 30.72 
L 476.910615 30.72 
z
" style="fill:#4c72b0;stroke:#000000;stroke-linejoin:miter;stroke-width:0.4;"/>
   </g>
   <g id="matplotlib.axis_1">
    <g id="xtick_1">
     <g id="line2d_1">
      <defs>
       <path d="M 0 0 
L 0 3.5 
" id="m077898c612" style="stroke:#000000;stroke-width:0.8;"/>
      </defs>
      <g>
       <use style="stroke:#000000;stroke-width:0.8;" x="89.035771" xlink:href="#m077898c612" y="161.3875"/>
      </g>
     </g>
     <g id="text_1">
      <!-- 1 -->
      <g transform="translate(84.535771 180.554375)scale(0.18 -0.18)">
       <defs>
        <path d="M 2829 154 
C 2253 160 2138 262 2138 755 
L 2138 4403 
L 2029 4403 
L 416 3706 
L 416 3539 
C 474 3558 518 3578 544 3590 
C 717 3654 877 3699 960 3699 
C 1120 3699 1190 3558 1190 3258 
L 1190 794 
C 1197 275 1062 160 429 154 
L 429 0 
L 2829 0 
L 2829 154 
z
" id="NimbusRoman-Bold-31" transform="scale(0.015625)"/>
       </defs>
       <use xlink:href="#NimbusRoman-Bold-31"/>
      </g>
     </g>
    </g>
    <g id="xtick_2">
     <g id="line2d_2">
      <g>
       <use style="stroke:#000000;stroke-width:0.8;" x="156.964815" xlink:href="#m077898c612" y="161.3875"/>
      </g>
     </g>
     <g id="text_2">
      <!-- 6 -->
      <g transform="translate(152.464815 180.554375)scale(0.18 -0.18)">
       <defs>
        <path d="M 3008 4403 
C 2157 4282 1754 4141 1274 3808 
C 557 3315 179 2598 179 1747 
C 179 640 762 -83 1664 -83 
C 2458 -83 3040 550 3040 1421 
C 3040 2195 2573 2694 1843 2694 
C 1638 2694 1498 2669 1306 2586 
C 1542 3526 2074 4045 3008 4237 
L 3008 4403 
z
M 1491 2406 
C 1920 2406 2067 2061 2067 1043 
C 2067 275 1990 90 1677 90 
C 1523 90 1414 154 1350 275 
C 1242 486 1178 954 1178 1549 
C 1178 1946 1216 2310 1261 2342 
C 1312 2381 1395 2406 1491 2406 
z
" id="NimbusRoman-Bold-36" transform="scale(0.015625)"/>
       </defs>
       <use xlink:href="#NimbusRoman-Bold-36"/>
      </g>
     </g>
    </g>
    <g id="xtick_3">
     <g id="line2d_3">
      <g>
       <use style="stroke:#000000;stroke-width:0.8;" x="224.89386" xlink:href="#m077898c612" y="161.3875"/>
      </g>
     </g>
     <g id="text_3">
      <!-- 11 -->
      <g transform="translate(215.89386 180.554375)scale(0.18 -0.18)">
       <use xlink:href="#NimbusRoman-Bold-31"/>
       <use x="49.999985" xlink:href="#NimbusRoman-Bold-31"/>
      </g>
     </g>
    </g>
    <g id="xtick_4">
     <g id="line2d_4">
      <g>
       <use style="stroke:#000000;stroke-width:0.8;" x="292.822904" xlink:href="#m077898c612" y="161.3875"/>
      </g>
     </g>
     <g id="text_4">
      <!-- 16 -->
      <g transform="translate(283.822904 180.554375)scale(0.18 -0.18)">
       <use xlink:href="#NimbusRoman-Bold-31"/>
       <use x="49.999985" xlink:href="#NimbusRoman-Bold-36"/>
      </g>
     </g>
    </g>
    <g id="xtick_5">
     <g id="line2d_5">
      <g>
       <use style="stroke:#000000;stroke-width:0.8;" x="360.751949" xlink:href="#m077898c612" y="161.3875"/>
      </g>
     </g>
     <g id="text_5">
      <!-- 21 -->
      <g transform="translate(351.751949 180.554375)scale(0.18 -0.18)">
       <defs>
        <path d="M 3059 1350 
L 2906 1350 
C 2720 896 2650 858 1990 851 
L 1024 851 
L 2061 1837 
C 2566 2317 2790 2746 2790 3232 
C 2790 3917 2304 4403 1606 4403 
C 1286 4403 979 4275 755 4045 
C 506 3795 378 3578 198 3098 
L 378 3098 
C 576 3501 813 3674 1158 3674 
C 1440 3674 1658 3552 1792 3322 
C 1869 3187 1920 3008 1920 2861 
C 1920 2579 1798 2227 1594 1914 
C 1267 1421 1043 1146 109 147 
L 109 0 
L 2771 0 
L 3059 1350 
z
" id="NimbusRoman-Bold-32" transform="scale(0.015625)"/>
       </defs>
       <use xlink:href="#NimbusRoman-Bold-32"/>
       <use x="49.999985" xlink:href="#NimbusRoman-Bold-31"/>
      </g>
     </g>
    </g>
    <g id="xtick_6">
     <g id="line2d_6">
      <g>
       <use style="stroke:#000000;stroke-width:0.8;" x="428.680994" xlink:href="#m077898c612" y="161.3875"/>
      </g>
     </g>
     <g id="text_6">
      <!-- 26 -->
      <g transform="translate(419.680994 180.554375)scale(0.18 -0.18)">
       <use xlink:href="#NimbusRoman-Bold-32"/>
       <use x="49.999985" xlink:href="#NimbusRoman-Bold-36"/>
      </g>
     </g>
    </g>
    <g id="text_7">
     <!-- Layer -->
     <g transform="translate(263.033594 200.41125)scale(0.18 -0.18)">
      <defs>
       <path d="M 4083 1453 
L 3898 1453 
C 3686 954 3558 755 3334 550 
C 3072 314 2714 198 2214 198 
C 1824 198 1709 282 1709 557 
L 1709 3578 
C 1722 4070 1811 4154 2355 4166 
L 2355 4326 
L 122 4326 
L 122 4166 
C 544 4147 666 4045 672 3712 
L 672 614 
C 666 282 576 211 122 160 
L 122 0 
L 3821 0 
L 4083 1453 
z
" id="NimbusRoman-Bold-4c" transform="scale(0.015625)"/>
       <path d="M 3027 410 
L 2963 346 
C 2944 326 2925 320 2893 320 
C 2803 320 2758 371 2758 480 
L 2758 2150 
C 2758 2694 2272 3027 1491 3027 
C 768 3027 282 2701 282 2221 
C 282 1952 435 1798 698 1798 
C 954 1798 1133 1952 1133 2170 
C 1133 2259 1101 2342 1018 2445 
C 960 2509 941 2547 941 2586 
C 941 2720 1114 2822 1344 2822 
C 1722 2822 1882 2650 1882 2259 
L 1882 1792 
C 1120 1562 806 1440 570 1274 
C 288 1082 160 864 160 589 
C 160 198 454 -90 870 -90 
C 1235 -90 1530 38 1882 358 
C 1952 32 2093 -90 2406 -90 
C 2682 -90 2880 13 3123 275 
L 3027 410 
z
M 1875 640 
C 1702 442 1574 365 1421 365 
C 1229 365 1094 538 1094 794 
C 1094 1165 1363 1434 1875 1568 
L 1875 640 
z
" id="NimbusRoman-Bold-61" transform="scale(0.015625)"/>
       <path d="M 3072 2950 
L 2106 2950 
L 2106 2797 
C 2381 2784 2458 2739 2458 2586 
C 2458 2515 2445 2458 2387 2298 
L 1952 1069 
L 1491 2253 
C 1363 2579 1363 2579 1363 2630 
C 1363 2726 1440 2771 1600 2790 
L 1702 2797 
L 1702 2950 
L 102 2950 
L 102 2797 
C 250 2778 288 2758 326 2701 
C 346 2694 640 2067 742 1805 
L 1510 -83 
L 1395 -422 
C 1286 -742 1126 -947 973 -947 
C 915 -947 864 -896 864 -838 
C 864 -832 864 -819 870 -800 
C 877 -768 883 -736 883 -710 
C 883 -525 736 -397 512 -397 
C 269 -397 102 -563 102 -806 
C 102 -1107 358 -1312 723 -1312 
C 941 -1312 1126 -1242 1261 -1101 
C 1395 -954 1523 -698 1747 -96 
L 2701 2445 
C 2810 2714 2874 2778 3072 2797 
L 3072 2950 
z
" id="NimbusRoman-Bold-79" transform="scale(0.015625)"/>
       <path d="M 2573 800 
C 2310 486 2118 371 1843 371 
C 1594 371 1408 486 1274 710 
C 1158 915 1107 1126 1082 1568 
L 2694 1568 
C 2656 2106 2560 2406 2355 2650 
C 2150 2899 1850 3027 1491 3027 
C 698 3027 160 2394 160 1459 
C 160 525 685 -90 1478 -90 
C 1997 -90 2310 109 2726 710 
L 2573 800 
z
M 1050 1805 
C 1069 2573 1184 2829 1498 2829 
C 1798 2829 1894 2611 1907 1901 
L 1907 1805 
L 1050 1805 
z
" id="NimbusRoman-Bold-65" transform="scale(0.015625)"/>
       <path d="M 1888 154 
C 1498 173 1427 256 1421 659 
L 1421 1869 
C 1421 2202 1600 2477 1811 2477 
C 1862 2477 1920 2432 1990 2330 
C 2112 2157 2208 2099 2374 2099 
C 2611 2099 2778 2278 2778 2522 
C 2778 2816 2560 3027 2259 3027 
C 1939 3027 1696 2861 1395 2426 
L 1395 2950 
L 186 2950 
L 186 2797 
C 454 2765 525 2688 531 2419 
L 531 538 
C 525 269 461 198 186 154 
L 186 0 
L 1888 0 
L 1888 154 
z
" id="NimbusRoman-Bold-72" transform="scale(0.015625)"/>
      </defs>
      <use xlink:href="#NimbusRoman-Bold-4c"/>
      <use x="66.699997" xlink:href="#NimbusRoman-Bold-61"/>
      <use x="116.699982" xlink:href="#NimbusRoman-Bold-79"/>
      <use x="166.699966" xlink:href="#NimbusRoman-Bold-65"/>
      <use x="211.09996" xlink:href="#NimbusRoman-Bold-72"/>
     </g>
    </g>
   </g>
   <g id="matplotlib.axis_2">
    <g id="ytick_1">
     <g id="line2d_7">
      <path clip-path="url(#pdda965d251)" d="M 78.86 161.3875 
L 493.2 161.3875 
" style="fill:none;stroke:#b0b0b0;stroke-dasharray:2.96,1.28;stroke-dashoffset:0;stroke-opacity:0.5;stroke-width:0.8;"/>
     </g>
     <g id="line2d_8">
      <defs>
       <path d="M 0 0 
L -3.5 0 
" id="m1c379d70eb" style="stroke:#000000;stroke-width:0.8;"/>
      </defs>
      <g>
       <use style="stroke:#000000;stroke-width:0.8;" x="78.86" xlink:href="#m1c379d70eb" y="161.3875"/>
      </g>
     </g>
     <g id="text_8">
      <!-- 0.80 -->
      <g transform="translate(40.36 167.470937)scale(0.18 -0.18)">
       <defs>
        <path d="M 1600 4403 
C 1184 4403 762 4122 499 3661 
C 294 3309 154 2707 154 2176 
C 154 851 755 -83 1606 -83 
C 2438 -83 3046 864 3046 2157 
C 3046 3437 2426 4403 1600 4403 
z
M 2035 1421 
C 2035 1043 1984 544 1926 371 
C 1856 186 1754 96 1606 96 
C 1286 96 1165 467 1165 1421 
L 1165 2886 
C 1165 3859 1280 4224 1594 4224 
C 1907 4224 2035 3827 2035 2886 
L 2035 1421 
z
" id="NimbusRoman-Bold-30" transform="scale(0.015625)"/>
        <path d="M 800 998 
C 506 998 262 755 262 461 
C 262 154 493 -83 794 -83 
C 1101 -83 1344 147 1344 448 
C 1344 755 1101 998 800 998 
z
" id="NimbusRoman-Bold-2e" transform="scale(0.015625)"/>
        <path d="M 1139 2074 
C 774 1952 621 1869 461 1709 
C 275 1530 179 1286 179 1005 
C 179 352 723 -83 1536 -83 
C 2426 -83 3021 429 3021 1197 
C 3021 1754 2746 2150 2061 2586 
C 2675 2803 2931 3059 2931 3475 
C 2931 4045 2451 4403 1683 4403 
C 819 4403 250 3962 250 3283 
C 250 2797 506 2451 1139 2074 
z
M 1907 2701 
C 1370 2976 1075 3328 1075 3686 
C 1075 3987 1306 4218 1606 4218 
C 1965 4218 2170 3930 2170 3437 
C 2170 3130 2118 2982 1907 2701 
z
M 1280 1958 
C 1978 1491 2131 1286 2131 813 
C 2131 384 1920 122 1574 122 
C 1184 122 954 461 954 1030 
C 954 1382 1024 1574 1280 1958 
z
" id="NimbusRoman-Bold-38" transform="scale(0.015625)"/>
       </defs>
       <use xlink:href="#NimbusRoman-Bold-30"/>
       <use x="49.999985" xlink:href="#NimbusRoman-Bold-2e"/>
       <use x="74.999969" xlink:href="#NimbusRoman-Bold-38"/>
       <use x="124.999954" xlink:href="#NimbusRoman-Bold-30"/>
      </g>
     </g>
    </g>
    <g id="ytick_2">
     <g id="line2d_9">
      <path clip-path="url(#pdda965d251)" d="M 78.86 128.720625 
L 493.2 128.720625 
" style="fill:none;stroke:#b0b0b0;stroke-dasharray:2.96,1.28;stroke-dashoffset:0;stroke-opacity:0.5;stroke-width:0.8;"/>
     </g>
     <g id="line2d_10">
      <g>
       <use style="stroke:#000000;stroke-width:0.8;" x="78.86" xlink:href="#m1c379d70eb" y="128.720625"/>
      </g>
     </g>
     <g id="text_9">
      <!-- 0.85 -->
      <g transform="translate(40.36 134.804062)scale(0.18 -0.18)">
       <defs>
        <path d="M 954 3514 
L 2733 3514 
L 3008 4326 
L 947 4326 
L 326 2118 
C 934 2074 1190 2035 1478 1946 
C 2048 1766 2387 1408 2387 979 
C 2387 621 2106 339 1747 339 
C 1600 339 1427 416 1171 608 
C 896 813 704 896 538 896 
C 307 896 141 736 141 512 
C 141 173 512 -51 1082 -51 
C 2138 -51 2886 589 2886 1491 
C 2886 2157 2477 2669 1779 2867 
C 1536 2938 1338 2963 813 2995 
L 954 3514 
z
" id="NimbusRoman-Bold-35" transform="scale(0.015625)"/>
       </defs>
       <use xlink:href="#NimbusRoman-Bold-30"/>
       <use x="49.999985" xlink:href="#NimbusRoman-Bold-2e"/>
       <use x="74.999969" xlink:href="#NimbusRoman-Bold-38"/>
       <use x="124.999954" xlink:href="#NimbusRoman-Bold-35"/>
      </g>
     </g>
    </g>
    <g id="ytick_3">
     <g id="line2d_11">
      <path clip-path="url(#pdda965d251)" d="M 78.86 96.05375 
L 493.2 96.05375 
" style="fill:none;stroke:#b0b0b0;stroke-dasharray:2.96,1.28;stroke-dashoffset:0;stroke-opacity:0.5;stroke-width:0.8;"/>
     </g>
     <g id="line2d_12">
      <g>
       <use style="stroke:#000000;stroke-width:0.8;" x="78.86" xlink:href="#m1c379d70eb" y="96.05375"/>
      </g>
     </g>
     <g id="text_10">
      <!-- 0.90 -->
      <g transform="translate(40.36 102.137187)scale(0.18 -0.18)">
       <defs>
        <path d="M 198 -83 
C 1094 45 1530 205 2029 582 
C 2682 1069 3027 1760 3027 2573 
C 3027 3680 2438 4403 1542 4403 
C 742 4403 166 3770 166 2893 
C 166 2138 634 1626 1331 1626 
C 1581 1626 1734 1658 1914 1747 
C 1638 774 1120 269 198 83 
L 198 -83 
z
M 1523 4230 
C 1690 4230 1792 4166 1869 4013 
C 1965 3840 2029 3386 2029 2931 
C 2029 2758 2016 2554 1997 2266 
C 1984 2182 1984 2125 1978 2099 
C 1971 2016 1965 1984 1946 1971 
C 1894 1939 1779 1914 1683 1914 
C 1286 1914 1139 2285 1139 3296 
C 1139 4038 1216 4230 1523 4230 
z
" id="NimbusRoman-Bold-39" transform="scale(0.015625)"/>
       </defs>
       <use xlink:href="#NimbusRoman-Bold-30"/>
       <use x="49.999985" xlink:href="#NimbusRoman-Bold-2e"/>
       <use x="74.999969" xlink:href="#NimbusRoman-Bold-39"/>
       <use x="124.999954" xlink:href="#NimbusRoman-Bold-30"/>
      </g>
     </g>
    </g>
    <g id="ytick_4">
     <g id="line2d_13">
      <path clip-path="url(#pdda965d251)" d="M 78.86 63.386875 
L 493.2 63.386875 
" style="fill:none;stroke:#b0b0b0;stroke-dasharray:2.96,1.28;stroke-dashoffset:0;stroke-opacity:0.5;stroke-width:0.8;"/>
     </g>
     <g id="line2d_14">
      <g>
       <use style="stroke:#000000;stroke-width:0.8;" x="78.86" xlink:href="#m1c379d70eb" y="63.386875"/>
      </g>
     </g>
     <g id="text_11">
      <!-- 0.95 -->
      <g transform="translate(40.36 69.470312)scale(0.18 -0.18)">
       <use xlink:href="#NimbusRoman-Bold-30"/>
       <use x="49.999985" xlink:href="#NimbusRoman-Bold-2e"/>
       <use x="74.999969" xlink:href="#NimbusRoman-Bold-39"/>
       <use x="124.999954" xlink:href="#NimbusRoman-Bold-35"/>
      </g>
     </g>
    </g>
    <g id="ytick_5">
     <g id="line2d_15">
      <path clip-path="url(#pdda965d251)" d="M 78.86 30.72 
L 493.2 30.72 
" style="fill:none;stroke:#b0b0b0;stroke-dasharray:2.96,1.28;stroke-dashoffset:0;stroke-opacity:0.5;stroke-width:0.8;"/>
     </g>
     <g id="line2d_16">
      <g>
       <use style="stroke:#000000;stroke-width:0.8;" x="78.86" xlink:href="#m1c379d70eb" y="30.72"/>
      </g>
     </g>
     <g id="text_12">
      <!-- 1.00 -->
      <g transform="translate(40.36 36.803437)scale(0.18 -0.18)">
       <use xlink:href="#NimbusRoman-Bold-31"/>
       <use x="49.999985" xlink:href="#NimbusRoman-Bold-2e"/>
       <use x="74.999969" xlink:href="#NimbusRoman-Bold-30"/>
       <use x="124.999954" xlink:href="#NimbusRoman-Bold-30"/>
      </g>
     </g>
    </g>
    <g id="text_13">
     <!-- Overlap Rate -->
     <g transform="translate(32.67 147.795312)rotate(-90)scale(0.18 -0.18)">
      <defs>
       <path d="M 2515 4422 
C 1171 4422 224 3482 224 2144 
C 224 819 1165 -122 2490 -122 
C 3814 -122 4755 819 4755 2150 
C 4755 3456 3808 4422 2515 4422 
z
M 2509 4211 
C 3213 4211 3622 3437 3622 2106 
C 3622 787 3232 90 2490 90 
C 1754 90 1357 787 1357 2086 
C 1357 3469 1760 4211 2509 4211 
z
" id="NimbusRoman-Bold-4f" transform="scale(0.015625)"/>
       <path d="M 3104 2950 
L 2138 2950 
L 2138 2797 
C 2413 2784 2490 2739 2490 2586 
C 2490 2509 2470 2419 2419 2298 
L 1958 1133 
L 1453 2432 
C 1402 2560 1395 2586 1395 2630 
C 1395 2726 1459 2771 1619 2784 
C 1638 2784 1683 2790 1734 2797 
L 1734 2950 
L 134 2950 
L 134 2797 
C 282 2778 320 2758 358 2701 
C 378 2701 672 2061 774 1805 
L 1542 -90 
L 1709 -90 
L 2733 2445 
C 2854 2726 2906 2778 3104 2797 
L 3104 2950 
z
" id="NimbusRoman-Bold-76" transform="scale(0.015625)"/>
       <path d="M 1632 154 
C 1427 154 1325 282 1318 538 
L 1318 4326 
L 102 4326 
L 102 4173 
C 314 4166 422 4045 429 3802 
L 429 538 
C 422 294 307 160 102 154 
L 102 0 
L 1632 0 
L 1632 154 
z
" id="NimbusRoman-Bold-6c" transform="scale(0.015625)"/>
       <path d="M 1869 -1178 
C 1485 -1165 1382 -1043 1370 -602 
L 1370 301 
C 1677 0 1837 -83 2125 -83 
C 2848 -83 3354 582 3354 1530 
C 3354 2426 2874 3027 2163 3027 
C 1786 3027 1555 2880 1357 2509 
L 1357 2950 
L 134 2950 
L 134 2797 
C 416 2758 480 2688 480 2419 
L 480 -787 
C 474 -1056 422 -1107 122 -1158 
L 122 -1312 
L 1869 -1312 
L 1869 -1178 
z
M 1370 2214 
C 1370 2259 1427 2362 1504 2445 
C 1632 2586 1779 2662 1920 2662 
C 2253 2662 2406 2278 2406 1440 
C 2406 646 2234 269 1862 269 
C 1651 269 1466 416 1370 659 
L 1370 2214 
z
" id="NimbusRoman-Bold-70" transform="scale(0.015625)"/>
       <path id="NimbusRoman-Bold-20" transform="scale(0.015625)"/>
       <path d="M 4576 160 
C 4461 160 4378 192 4314 282 
L 3027 2106 
C 3405 2227 3565 2304 3744 2470 
C 3930 2643 4032 2899 4032 3187 
C 4032 3930 3398 4326 2227 4326 
L 166 4326 
L 166 4166 
C 627 4141 717 4051 730 3578 
L 730 749 
C 717 275 659 211 166 160 
L 166 0 
L 2330 0 
L 2330 160 
C 1843 218 1779 288 1766 749 
L 1766 2003 
L 1939 2003 
L 3264 0 
L 4576 0 
L 4576 160 
z
M 1766 3840 
C 1766 3878 1792 3974 1811 4013 
C 1850 4077 1952 4109 2112 4109 
C 2701 4109 2938 3834 2938 3162 
C 2938 2752 2842 2502 2637 2368 
C 2470 2259 2253 2214 1766 2208 
L 1766 3840 
z
" id="NimbusRoman-Bold-52" transform="scale(0.015625)"/>
       <path d="M 1952 2950 
L 1350 2950 
L 1350 4032 
L 1190 4032 
C 800 3482 544 3194 128 2842 
L 128 2669 
L 461 2669 
L 461 595 
C 461 179 736 -77 1178 -77 
C 1606 -77 1862 115 2125 640 
L 1965 710 
C 1837 467 1734 378 1600 378 
C 1421 378 1350 486 1350 742 
L 1350 2669 
L 1952 2669 
L 1952 2950 
z
" id="NimbusRoman-Bold-74" transform="scale(0.015625)"/>
      </defs>
      <use xlink:href="#NimbusRoman-Bold-4f"/>
      <use x="77.799988" xlink:href="#NimbusRoman-Bold-76"/>
      <use x="127.799973" xlink:href="#NimbusRoman-Bold-65"/>
      <use x="172.199966" xlink:href="#NimbusRoman-Bold-72"/>
      <use x="216.59996" xlink:href="#NimbusRoman-Bold-6c"/>
      <use x="244.399948" xlink:href="#NimbusRoman-Bold-61"/>
      <use x="294.399933" xlink:href="#NimbusRoman-Bold-70"/>
      <use x="349.999924" xlink:href="#NimbusRoman-Bold-20"/>
      <use x="374.999908" xlink:href="#NimbusRoman-Bold-52"/>
      <use x="447.19989" xlink:href="#NimbusRoman-Bold-61"/>
      <use x="497.199875" xlink:href="#NimbusRoman-Bold-74"/>
      <use x="530.499863" xlink:href="#NimbusRoman-Bold-65"/>
     </g>
    </g>
   </g>
   <g id="patch_33">
    <path d="M 78.86 161.3875 
L 78.86 30.72 
" style="fill:none;stroke:#000000;stroke-linecap:square;stroke-linejoin:miter;stroke-width:0.8;"/>
   </g>
   <g id="patch_34">
    <path d="M 493.2 161.3875 
L 493.2 30.72 
" style="fill:none;stroke:#000000;stroke-linecap:square;stroke-linejoin:miter;stroke-width:0.8;"/>
   </g>
   <g id="patch_35">
    <path d="M 78.86 161.3875 
L 493.2 161.3875 
" style="fill:none;stroke:#000000;stroke-linecap:square;stroke-linejoin:miter;stroke-width:0.8;"/>
   </g>
   <g id="patch_36">
    <path d="M 78.86 30.72 
L 493.2 30.72 
" style="fill:none;stroke:#000000;stroke-linecap:square;stroke-linejoin:miter;stroke-width:0.8;"/>
   </g>
   <g id="text_14">
    <!-- Overlap Rate per Layer -->
    <g transform="translate(183.547187 24.72)scale(0.2 -0.2)">
     <use xlink:href="#NimbusRoman-Bold-4f"/>
     <use x="77.799988" xlink:href="#NimbusRoman-Bold-76"/>
     <use x="127.799973" xlink:href="#NimbusRoman-Bold-65"/>
     <use x="172.199966" xlink:href="#NimbusRoman-Bold-72"/>
     <use x="216.59996" xlink:href="#NimbusRoman-Bold-6c"/>
     <use x="244.399948" xlink:href="#NimbusRoman-Bold-61"/>
     <use x="294.399933" xlink:href="#NimbusRoman-Bold-70"/>
     <use x="349.999924" xlink:href="#NimbusRoman-Bold-20"/>
     <use x="374.999908" xlink:href="#NimbusRoman-Bold-52"/>
     <use x="447.19989" xlink:href="#NimbusRoman-Bold-61"/>
     <use x="497.199875" xlink:href="#NimbusRoman-Bold-74"/>
     <use x="530.499863" xlink:href="#NimbusRoman-Bold-65"/>
     <use x="574.899857" xlink:href="#NimbusRoman-Bold-20"/>
     <use x="599.899841" xlink:href="#NimbusRoman-Bold-70"/>
     <use x="655.499832" xlink:href="#NimbusRoman-Bold-65"/>
     <use x="699.899826" xlink:href="#NimbusRoman-Bold-72"/>
     <use x="744.29982" xlink:href="#NimbusRoman-Bold-20"/>
     <use x="769.299805" xlink:href="#NimbusRoman-Bold-4c"/>
     <use x="835.999802" xlink:href="#NimbusRoman-Bold-61"/>
     <use x="885.999786" xlink:href="#NimbusRoman-Bold-79"/>
     <use x="935.999771" xlink:href="#NimbusRoman-Bold-65"/>
     <use x="980.399765" xlink:href="#NimbusRoman-Bold-72"/>
    </g>
   </g>
  </g>
 </g>
 <defs>
  <clipPath id="pdda965d251">
   <rect height="130.6675" width="414.34" x="78.86" y="30.72"/>
  </clipPath>
 </defs>
</svg>
